<svg width="31" height="32" viewBox="0 0 31 32" fill="none" xmlns="http://www.w3.org/2000/svg">
<path d="M20.3 16.0001C20.3 17.2732 19.7943 18.4941 18.8941 19.3943C17.994 20.2944 16.7731 20.8001 15.5 20.8001C14.227 20.8001 13.0061 20.2944 12.1059 19.3943C11.2057 18.4941 10.7 17.2732 10.7 16.0001C10.7011 15.726 10.7272 15.4593 10.7784 15.2001H9.10001V21.5953C9.10001 22.0401 9.46001 22.4001 9.90481 22.4001H21.0968C21.31 22.3997 21.5143 22.3147 21.6649 22.1639C21.8154 22.013 21.9 21.8085 21.9 21.5953V15.2001H20.2216C20.2728 15.4593 20.2989 15.726 20.3 16.0001ZM15.5 19.2001C15.9204 19.2 16.3365 19.1171 16.7248 18.9562C17.1131 18.7952 17.4659 18.5594 17.7631 18.2621C18.0602 17.9648 18.2959 17.6119 18.4567 17.2235C18.6174 16.8351 18.7001 16.4189 18.7 15.9985C18.6999 15.5782 18.617 15.162 18.4561 14.7737C18.2951 14.3854 18.0593 14.0326 17.762 13.7355C17.4647 13.4383 17.1117 13.2026 16.7234 13.0419C16.335 12.8811 15.9187 12.7984 15.4984 12.7985C14.6495 12.7987 13.8355 13.1362 13.2353 13.7366C12.6352 14.337 12.2982 15.1512 12.2984 16.0001C12.2986 16.849 12.6361 17.6631 13.2365 18.2632C13.8369 18.8633 14.6511 19.2003 15.5 19.2001ZM19.34 12.6401H21.2584C21.3216 12.6403 21.3842 12.6281 21.4426 12.6041C21.501 12.58 21.5541 12.5447 21.5989 12.5001C21.6436 12.4555 21.6791 12.4025 21.7033 12.3442C21.7275 12.2859 21.74 12.2233 21.74 12.1601V10.2417C21.7402 10.1784 21.7279 10.1157 21.7038 10.0572C21.6797 9.99866 21.6442 9.94549 21.5994 9.90072C21.5547 9.85596 21.5015 9.82049 21.443 9.79637C21.3844 9.77224 21.3217 9.75992 21.2584 9.76014H19.34C19.2767 9.75992 19.214 9.77224 19.1555 9.79637C19.0969 9.82049 19.0438 9.85596 18.999 9.90072C18.9542 9.94549 18.9188 9.99866 18.8946 10.0572C18.8705 10.1157 18.8582 10.1784 18.8584 10.2417V12.1601C18.86 12.4241 19.076 12.6401 19.34 12.6401ZM15.5 0.640137C11.4263 0.640137 7.51941 2.25842 4.63885 5.13898C1.7583 8.01954 0.140015 11.9264 0.140015 16.0001C0.140015 20.0739 1.7583 23.9807 4.63885 26.8613C7.51941 29.7419 11.4263 31.3601 15.5 31.3601C17.5171 31.3601 19.5145 30.9628 21.378 30.1909C23.2416 29.419 24.9349 28.2876 26.3612 26.8613C27.7875 25.435 28.9189 23.7417 29.6908 21.8782C30.4627 20.0146 30.86 18.0172 30.86 16.0001C30.86 13.983 30.4627 11.9857 29.6908 10.1221C28.9189 8.25856 27.7875 6.56528 26.3612 5.13898C24.9349 3.71267 23.2416 2.58126 21.378 1.80935C19.5145 1.03743 17.5171 0.640137 15.5 0.640137ZM23.5 22.2225C23.5 23.2001 22.7 24.0001 21.7224 24.0001H9.27761C8.30001 24.0001 7.50001 23.2001 7.50001 22.2225V9.77774C7.50001 8.80014 8.30001 8.00014 9.27761 8.00014H21.7224C22.7 8.00014 23.5 8.80014 23.5 9.77774V22.2225Z" fill="white"/>
</svg>
