<svg width="31" height="32" viewBox="0 0 31 32" fill="none" xmlns="http://www.w3.org/2000/svg">
<path d="M18.0648 15.7329L14.4712 14.0561C14.1576 13.9105 13.9 14.0737 13.9 14.4209V17.5793C13.9 17.9265 14.1576 18.0897 14.4712 17.9441L18.0632 16.2673C18.3784 16.1201 18.3784 15.8801 18.0648 15.7329ZM15.5 0.640137C7.01682 0.640137 0.140015 7.51694 0.140015 16.0001C0.140015 24.4833 7.01682 31.3601 15.5 31.3601C23.9832 31.3601 30.86 24.4833 30.86 16.0001C30.86 7.51694 23.9832 0.640137 15.5 0.640137ZM15.5 22.2401C7.63762 22.2401 7.50001 21.5313 7.50001 16.0001C7.50001 10.4689 7.63762 9.76014 15.5 9.76014C23.3624 9.76014 23.5 10.4689 23.5 16.0001C23.5 21.5313 23.3624 22.2401 15.5 22.2401Z" fill="white"/>
</svg>
